<?xml version="1.0" encoding="UTF-8"?>
<!-- Copyright (C) 2020 Blizzard Entertainment, Inc  -->
<!-- SPDX-License-Identifier: UNLICENSED -->
<!-- https://www.blizzard.com/en-us/legal/8bcb0794-6641-4ce3-a573-8eb243bab342/blizzard-entertainment-logo-and-trademark-guidelines -->
<!DOCTYPE svg PUBLIC "-//W3C//DTD SVG 1.1//EN" "http://www.w3.org/Graphics/SVG/1.1/DTD/svg11.dtd">
<svg version="1.1" id="Layer_1" xmlns="http://www.w3.org/2000/svg" xmlns:xlink="http://www.w3.org/1999/xlink" x="0px" y="0px"
    viewBox="0 0 467.03329 227.9339"
    width="467.03329"
    height="227.9339"
>
<title>StarCraft2 logo(text)</title>
<style type="text/css">
	.st0{fill:#CCE1FF;}
</style>
<g>
	<path class="st0" d="m 35.525,38.73391 h 129.3 l 17.1,15.7 c 0.7,0.7 0.7,0.7 1.4,0.7 v 0 c 0.7,0 1.4,0 1.4,-0.7 l 45.7,-50 c 0.7,-0.7 0.7,-1.4 0.7,-2.9 -0.7,-0.7 -1.4,-1.4 -2.1,-1.4 h -167.8 c -7.1,-0.7 -13.6,1.4 -19.3,5 -5,4.3 -9.3,11.4 -9.3,24.3 v 5.7 c 0.1,2.2 1.5,3.6 2.9,3.6 z m 429.3,-36.4 h -184.3 l -1.4,0.7 -33.6,31.4 c -0.7,0.7 -0.7,2.9 0,3.6 0.7,0.7 1.4,0.7 1.4,0.7 h 147.8 l 7.9,10.7 c 0.7,0.7 2.1,1.4 3.6,0.7 l 60,-42.9 c 0.7,-0.7 1.4,-2.1 0,-3.6 0,-0.6 -0.7,-1.3 -1.4,-1.3 z m -61.5,196.4 c -5,0.7 -10,1.4 -15,1.4 -43.6,-1.4 -79.3,-35 -82.9,-78.6 -0.7,-5.7 -0.7,-10.7 -0.7,-16.4 0,-14.3 0.7,-29.3 3.6,-43.6 0,-0.7 0,-1.4 -0.7,-2.1 -0.7,-0.7 -1.4,-0.7 -2.1,-0.7 h -65.7 c -0.7,0 -2.1,0.7 -2.1,1.4 -5.7,16.4 -8.6,34.3 -8.6,52.1 0,14.3 2.1,21.4 7.1,38.6 12.9,39.3 60,77.1 97.9,77.1 57.1,0 71.4,-20 72.1,-26.4 0,-1.4 -0.7,-2.8 -2.9,-2.8 z m -277.1,-137.8 -2.1,-0.7 h -74.3 c -1.4,0 -2.1,1.4 -2.1,2.1 0,0.7 0,1.4 0.7,1.4 0,0 100.7,116.4 102.9,119.3 0,0 0,0.7 0.7,0.7 l -0.7,0.7 h -59.3 c -8.6,0 -17.1,-2.9 -24.3,-7.9 -2.9,-2.1 -5,-5 -7.1,-7.9 -1.4,0 -1.4,0 -2.1,0 -0.7,0 -1.4,0 -2.1,0.7 l -55.9,51.5 c -0.7,0.7 -0.7,2.9 0,3.6 0.7,0.7 0.7,0.7 1.4,0.7 h 207.8 c 12.1,0 20,-12.9 20.7,-25 0,-5 -1.4,-10 -4.3,-13.6 -8.5,-10.6 -99.9,-125.6 -99.9,-125.6 z"/>
</g>
</svg>
