<?xml version="1.0" encoding="UTF-8"?>
<!-- Copyright (C) 2020 Oleksandr Masniuk and contributors -->
<!-- SPDX-License-Identifier: MIT -->
<!DOCTYPE svg PUBLIC "-//W3C//DTD SVG 1.1//EN" "http://www.w3.org/Graphics/SVG/1.1/DTD/svg11.dtd">
<svg xmlns="http://www.w3.org/2000/svg"
    xmlns:xlink="http://www.w3.org/1999/xlink"
    version="1.1"
    viewBox="0 0 34.26416 18.001833"
    height="18.001833mm"
    width="34.26416mm"
>
    <title>StarCraft2 title(text)</title>
    <path
       d="m 2.23306,15.756998 2.23306,-2.244722 0.68599,0.657222 c 0.65433,0.626885 0.83576,0.657223 3.93062,0.657223 h 3.24462 L 10.4861,12.7762 C 9.47341,11.648413 7.33289,9.177867 5.7294,7.286096 L 2.81396,3.846512 6.03135,3.765502 c 3.21738,-0.08101 3.21738,-0.08101 3.87884,0.761624 0.3638,0.463449 1.53825,1.809594 2.60989,2.991429 2.5264,2.786211 4.94725,6.017107 5.16824,6.897611 0.23761,0.94669 -0.51942,2.46475 -1.53925,3.086637 -0.7477,0.455951 -1.44732,0.497022 -8.482,0.49793 L 0,18.001833 Z m 22.04762,1.989918 C 21.99522,17.202999 18.94771,13.922324 18.25,11.254846 17.80733,9.562404 17.88755,6.230906 18.41087,4.574117 18.68248,3.714221 18.68248,3.714221 21.5521,3.714221 h 2.86962 l -0.36096,0.727604 c -0.71767,1.446636 -1.20316,4.576024 -0.89022,5.73819 0.64419,2.392363 1.99748,4.082026 4.12066,5.144897 0.92633,0.463728 1.38344,0.526566 2.77355,0.38127 1.66442,-0.173966 1.66442,-0.173966 1.25296,0.465474 -0.71424,1.110004 -2.50593,1.833639 -4.4641,1.802982 -0.95143,-0.0149 -2.10925,-0.117372 -2.57293,-0.227722 z M 13.34713,3.843695 C 12.70906,3.164504 12.70906,3.164504 7.47289,3.240926 L 2.23673,3.317346 2.23699,2.516323 C 2.23734,1.513284 2.79176,0.702495 3.74808,0.306496 4.25832,0.095216 6.63251,0.022691 11.43763,0.071596 l 6.95142,0.07075 -2.20193,2.190268 -2.20193,2.190269 z m 15.88465,0.01026 C 28.60337,3.185044 28.60335,3.185041 23.69119,3.185041 H 18.77902 L 20.37154,1.592522 21.96406,0 l 6.15005,0.07117 6.15005,0.07117 -2.20198,2.190268 -2.20199,2.190269 z"
       style="fill:#295a91"
    />
</svg>
