<?xml version="1.0" encoding="UTF-8"?>
<!-- Copyright (C) 2020 Oleksandr Masniuk and contributors -->
<!-- SPDX-License-Identifier: MIT -->
<!DOCTYPE svg PUBLIC "-//W3C//DTD SVG 1.1//EN" "http://www.w3.org/Graphics/SVG/1.1/DTD/svg11.dtd">
<svg xmlns="http://www.w3.org/2000/svg"
    xmlns:xlink="http://www.w3.org/1999/xlink"
    version="1.1"
    width="55.110008mm"
    height="75.992615mm"
    viewBox="0 0 55.110007 75.992615"
>
    <title>StarCraft2 logo(number)</title>
    <path
        id="part-left"
        d="M 24.380002,65.078554 C 24.390402,20.96366 24.357902,3.124518 24.266962,3.033545 23.927862,2.694448 15.355582,0.00783718 14.587842,4.168127e-5 14.078522,-0.00512832 11.697272,0.47131768 9.2961724,1.0588139 6.8950824,1.6463103 3.9620024,2.330389 2.7782324,2.578987 0.70285239,3.014828 -0.21811761,3.350299 0.04342239,3.57517 c 0.0686,0.05894 1.03037001,0.537964 2.13739001,1.064504 3.29395,1.566721 5.75969,4.174222 6.93398,7.332623 0.40676,1.094019 0.44596,3.423612 0.44596,26.498032 v 25.298562 l 1.6796096,2.076966 c 1.96125,2.425239 4.88467,5.137549 7.31623,6.787904 2.45706,1.66766 5.25699,3.358856 5.56091,3.358856 0.16593,0 0.26086,-3.946615 0.2625,-10.914063 z"
        style="fill:#3390FF;"
    />
    <use
        transform="matrix(-1,0,0,1,55.110008,0)"
        xlink:href="#part-left"
        y="0"
        x="0"
    />
</svg>
